<mxfile host="app.diagrams.net" agent="Mozilla/5.0 (Windows NT 10.0; Win64; x64) AppleWebKit/537.36 (KHTML, like Gecko) Chrome/121.0.0.0 Safari/537.36" version="24.7.7">
  <diagram name="Page-1" id="b98fa263-6416-c6ec-5b7d-78bf54ef71d0">
    <mxGraphModel dx="5600" dy="2340" grid="1" gridSize="10" guides="1" tooltips="1" connect="1" arrows="1" fold="1" page="1" pageScale="1.5" pageWidth="1654" pageHeight="1169" background="none" math="0" shadow="0">
      <root>
        <mxCell id="0" style=";html=1;" />
        <mxCell id="1" style=";html=1;" parent="0" />
        <mxCell id="aMiYXr5Bl79WTztZy76K-6" style="edgeStyle=orthogonalEdgeStyle;rounded=0;orthogonalLoop=1;jettySize=auto;html=1;exitX=0.5;exitY=1;exitDx=0;exitDy=0;" edge="1" parent="1" source="aMiYXr5Bl79WTztZy76K-1" target="aMiYXr5Bl79WTztZy76K-7">
          <mxGeometry relative="1" as="geometry">
            <mxPoint x="180" y="410" as="targetPoint" />
          </mxGeometry>
        </mxCell>
        <mxCell id="aMiYXr5Bl79WTztZy76K-9" style="edgeStyle=orthogonalEdgeStyle;rounded=0;orthogonalLoop=1;jettySize=auto;html=1;exitX=0.5;exitY=1;exitDx=0;exitDy=0;" edge="1" parent="1" source="aMiYXr5Bl79WTztZy76K-1" target="aMiYXr5Bl79WTztZy76K-8">
          <mxGeometry relative="1" as="geometry" />
        </mxCell>
        <mxCell id="aMiYXr5Bl79WTztZy76K-11" style="edgeStyle=orthogonalEdgeStyle;rounded=0;orthogonalLoop=1;jettySize=auto;html=1;exitX=0.5;exitY=1;exitDx=0;exitDy=0;entryX=0.5;entryY=0;entryDx=0;entryDy=0;" edge="1" parent="1" source="aMiYXr5Bl79WTztZy76K-1" target="aMiYXr5Bl79WTztZy76K-12">
          <mxGeometry relative="1" as="geometry">
            <mxPoint x="690" y="490" as="targetPoint" />
            <Array as="points">
              <mxPoint x="425" y="420" />
              <mxPoint x="705" y="420" />
            </Array>
          </mxGeometry>
        </mxCell>
        <mxCell id="aMiYXr5Bl79WTztZy76K-1" value="&lt;font style=&quot;font-size: 14px;&quot;&gt;运行时上下文RuntimeContext（让Function运行时能获取作业级别的信息）&lt;/font&gt;" style="rounded=0;whiteSpace=wrap;html=1;" vertex="1" parent="1">
          <mxGeometry x="310" y="250" width="230" height="100" as="geometry" />
        </mxCell>
        <mxCell id="aMiYXr5Bl79WTztZy76K-2" value="&lt;font style=&quot;font-size: 14px;&quot;&gt;RichFunction接口&lt;/font&gt;" style="rounded=0;whiteSpace=wrap;html=1;" vertex="1" parent="1">
          <mxGeometry x="310" y="60" width="230" height="100" as="geometry" />
        </mxCell>
        <mxCell id="aMiYXr5Bl79WTztZy76K-4" value="" style="endArrow=classic;html=1;rounded=0;exitX=0.5;exitY=1;exitDx=0;exitDy=0;entryX=0.5;entryY=0;entryDx=0;entryDy=0;" edge="1" parent="1" source="aMiYXr5Bl79WTztZy76K-2" target="aMiYXr5Bl79WTztZy76K-1">
          <mxGeometry width="50" height="50" relative="1" as="geometry">
            <mxPoint x="420" y="170" as="sourcePoint" />
            <mxPoint x="780" y="180" as="targetPoint" />
          </mxGeometry>
        </mxCell>
        <mxCell id="aMiYXr5Bl79WTztZy76K-5" value="一对一" style="text;html=1;align=center;verticalAlign=middle;whiteSpace=wrap;rounded=0;" vertex="1" parent="1">
          <mxGeometry x="430" y="190" width="60" height="30" as="geometry" />
        </mxCell>
        <mxCell id="aMiYXr5Bl79WTztZy76K-7" value="&lt;font style=&quot;font-size: 14px;&quot;&gt;StreamingRuntimeContext(流计算中)&lt;/font&gt;" style="rounded=0;whiteSpace=wrap;html=1;" vertex="1" parent="1">
          <mxGeometry x="10" y="490" width="190" height="80" as="geometry" />
        </mxCell>
        <mxCell id="aMiYXr5Bl79WTztZy76K-8" value="&lt;font style=&quot;font-size: 14px;&quot;&gt;&lt;span style=&quot;background-color: rgb(255, 255, 255); font-family: &amp;quot;JetBrains Mono&amp;quot;, monospace; font-size: 10.5pt;&quot;&gt;DistributedRuntimeUDFContext&lt;/span&gt;(批处理中)&lt;/font&gt;" style="rounded=0;whiteSpace=wrap;html=1;" vertex="1" parent="1">
          <mxGeometry x="310" y="480" width="230" height="100" as="geometry" />
        </mxCell>
        <mxCell id="aMiYXr5Bl79WTztZy76K-12" value="&lt;font face=&quot;JetBrains Mono, monospace&quot;&gt;&lt;span style=&quot;font-size: 14px; background-color: rgb(255, 255, 255);&quot;&gt;。。。&lt;/span&gt;&lt;/font&gt;" style="rounded=0;whiteSpace=wrap;html=1;" vertex="1" parent="1">
          <mxGeometry x="590" y="480" width="230" height="100" as="geometry" />
        </mxCell>
        <mxCell id="aMiYXr5Bl79WTztZy76K-16" style="edgeStyle=orthogonalEdgeStyle;rounded=0;orthogonalLoop=1;jettySize=auto;html=1;exitX=0.5;exitY=1;exitDx=0;exitDy=0;" edge="1" parent="1" source="aMiYXr5Bl79WTztZy76K-14" target="aMiYXr5Bl79WTztZy76K-15">
          <mxGeometry relative="1" as="geometry" />
        </mxCell>
        <mxCell id="aMiYXr5Bl79WTztZy76K-20" style="edgeStyle=orthogonalEdgeStyle;rounded=0;orthogonalLoop=1;jettySize=auto;html=1;exitX=0.5;exitY=1;exitDx=0;exitDy=0;" edge="1" parent="1" source="aMiYXr5Bl79WTztZy76K-14" target="aMiYXr5Bl79WTztZy76K-17">
          <mxGeometry relative="1" as="geometry" />
        </mxCell>
        <mxCell id="aMiYXr5Bl79WTztZy76K-21" style="edgeStyle=orthogonalEdgeStyle;rounded=0;orthogonalLoop=1;jettySize=auto;html=1;exitX=0.5;exitY=1;exitDx=0;exitDy=0;" edge="1" parent="1" source="aMiYXr5Bl79WTztZy76K-14" target="aMiYXr5Bl79WTztZy76K-18">
          <mxGeometry relative="1" as="geometry" />
        </mxCell>
        <mxCell id="aMiYXr5Bl79WTztZy76K-22" style="edgeStyle=orthogonalEdgeStyle;rounded=0;orthogonalLoop=1;jettySize=auto;html=1;exitX=0.5;exitY=1;exitDx=0;exitDy=0;" edge="1" parent="1" source="aMiYXr5Bl79WTztZy76K-14" target="aMiYXr5Bl79WTztZy76K-19">
          <mxGeometry relative="1" as="geometry" />
        </mxCell>
        <mxCell id="aMiYXr5Bl79WTztZy76K-14" value="&lt;font style=&quot;font-size: 14px;&quot;&gt;3.2 StreamElement数据流元素抽象类（执行时序列化为二进制，反序列化为对应类型）&lt;/font&gt;" style="rounded=0;whiteSpace=wrap;html=1;" vertex="1" parent="1">
          <mxGeometry x="1400" y="70" width="230" height="80" as="geometry" />
        </mxCell>
        <mxCell id="aMiYXr5Bl79WTztZy76K-15" value="&lt;font style=&quot;font-size: 14px;&quot;&gt;&lt;b&gt;StreamRecord&lt;/b&gt;(数据流中一条记录，包含数据本身及可选时间戳)&lt;/font&gt;" style="rounded=0;whiteSpace=wrap;html=1;" vertex="1" parent="1">
          <mxGeometry x="1040" y="310" width="190" height="80" as="geometry" />
        </mxCell>
        <mxCell id="aMiYXr5Bl79WTztZy76K-17" value="&lt;font style=&quot;font-size: 14px;&quot;&gt;LatencyMarker(评估延迟。包含周期算子创造出来的时间戳、算子编号、数据源算子所在的Task编号)&lt;/font&gt;" style="rounded=0;whiteSpace=wrap;html=1;" vertex="1" parent="1">
          <mxGeometry x="1280" y="310" width="190" height="80" as="geometry" />
        </mxCell>
        <mxCell id="aMiYXr5Bl79WTztZy76K-18" value="&lt;font style=&quot;font-size: 14px;&quot;&gt;Watermark(时间戳，代表所有算子时间早于等于watermark的事件都已经到达)&lt;/font&gt;" style="rounded=0;whiteSpace=wrap;html=1;" vertex="1" parent="1">
          <mxGeometry x="1540" y="310" width="190" height="80" as="geometry" />
        </mxCell>
        <mxCell id="aMiYXr5Bl79WTztZy76K-19" value="&lt;font style=&quot;font-size: 14px;&quot;&gt;StreamStatus(用来通知tasks是否会继续接收到上游的记录或者watermark。有两种状态一个是空闲idle,一个是活跃active)&lt;/font&gt;" style="rounded=0;whiteSpace=wrap;html=1;" vertex="1" parent="1">
          <mxGeometry x="1790" y="310" width="200" height="80" as="geometry" />
        </mxCell>
      </root>
    </mxGraphModel>
  </diagram>
</mxfile>
